<svg xmlns="http://www.w3.org/2000/svg" viewBox="0 0 850.35 255.12"><defs><style>.cls-1{fill:#fff;}.cls-2{fill:#ce0e2d;fill-rule:evenodd;}</style></defs><g id="Layer_2" data-name="Layer 2"><g id="图层_1" data-name="图层 1"><path class="cls-1" d="M790.35,0H53.15c-1.95,0-3.84.06-5.8.09A83.7,83.7,0,0,0,34.73,1.21,40.79,40.79,0,0,0,12.56,12.56a39.25,39.25,0,0,0-7.41,10.2,42,42,0,0,0-3.94,12A81.71,81.71,0,0,0,.09,47.35C0,49.27,0,51.23,0,53.15V202c0,1.95,0,3.84.09,5.8a81.82,81.82,0,0,0,1.12,12.59,41.76,41.76,0,0,0,3.94,12,38.46,38.46,0,0,0,7.41,10.14,40.31,40.31,0,0,0,10.2,7.44,43.44,43.44,0,0,0,12,4A87.79,87.79,0,0,0,47.35,255c2,0,3.85.06,5.8.06,2.3,0,4.56,0,6.85,0H790.35c2.26,0,4.56,0,6.82,0,1.92,0,3.91,0,5.8-.06a86.63,86.63,0,0,0,12.59-1.12,44.16,44.16,0,0,0,12-4,41.27,41.27,0,0,0,17.61-17.58,41.7,41.7,0,0,0,3.91-12,85.81,85.81,0,0,0,1.18-12.59V202c.06-2.3.06-4.56.06-6.89V60c0-2.33,0-4.59-.06-6.89v-5.8a85.69,85.69,0,0,0-1.18-12.59,41.9,41.9,0,0,0-3.91-12A40.7,40.7,0,0,0,827.59,5.15a41.53,41.53,0,0,0-12-3.94A82.63,82.63,0,0,0,803,.09c-1.89,0-3.88-.09-5.8-.09Z"/><path d="M53.17,249.6c-1.93,0-3.82,0-5.71-.07a81.08,81.08,0,0,1-11.75-1,37.33,37.33,0,0,1-10.42-3.44,34.49,34.49,0,0,1-8.84-6.42A33.64,33.64,0,0,1,10,229.84a36.66,36.66,0,0,1-3.41-10.42,78.1,78.1,0,0,1-1-11.81c-.06-1.3-.1-5.74-.1-5.74V53.18s0-4.37.1-5.64a77.33,77.33,0,0,1,1-11.79A37.17,37.17,0,0,1,10,25.27a34.4,34.4,0,0,1,6.39-8.81A35,35,0,0,1,25.29,10,35.55,35.55,0,0,1,35.68,6.63a78.42,78.42,0,0,1,11.78-1l5.71-.09h744l5.77.09a81.4,81.4,0,0,1,11.72,1A38.59,38.59,0,0,1,825.12,10a36.1,36.1,0,0,1,8.75,6.39,35.67,35.67,0,0,1,6.45,8.87,35.07,35.07,0,0,1,3.35,10.39,77.92,77.92,0,0,1,1.08,11.85c0,1.79,0,3.72,0,5.64.06,2.32.06,4.59.06,6.85V195.08c0,2.26,0,4.53-.06,6.76,0,2,0,3.91,0,5.86a79.79,79.79,0,0,1-1,11.66A35,35,0,0,1,825.09,245a37.13,37.13,0,0,1-10.48,3.47,81.12,81.12,0,0,1-11.78,1c-1.86,0-3.79.07-5.68.07h-744Z"/><path class="cls-2" d="M172.33,46.41h-71C68,46.41,55.7,58.63,55.7,92.06v71c0,33.43,12.25,45.64,45.68,45.64H172.3c33.43,0,45.71-12.21,45.71-45.64v-71c0-33.43-12.25-45.65-45.68-45.65"/><path class="cls-1" d="M87.85,127.57h4.31v21.21H87.85v-8.62H78.11v8.62H73.83V127.57h4.28v8.56h9.74Zm24.24,12.15c0,3.42-1.73,5.28-4.8,5.28s-4.87-1.9-4.87-5.43v-12H98.11v12.15c0,6,3.32,9.37,9.12,9.37s9.18-3.47,9.18-9.55v-12h-4.32Zm49.78,2.42L157,127.57h-3.51l-4.8,14.57L144,127.57h-4.55l7.38,21.21h3.56l4.84-13.92L160,148.78h3.59L171,127.57h-4.46Zm16.87-2.48h7.84v-3.87h-7.84v-4.35h11.38v-3.87H174.49v21.21h16V144.9H178.74Zm16.9,9.09h4.24V127.54h-4.24Zm-70.74-4.41L123,148.78h-4.4l9.36-21.21h3.78l9.34,21.21h-4.53l-1.89-4.44Zm1.61-3.81H133l-3.29-7.6Z"/><path class="cls-1" d="M136.84,100.54a27.07,27.07,0,0,1-27-27h3.81a23.2,23.2,0,1,0,46.4,0h3.81a27.05,27.05,0,0,1-27,27"/><path class="cls-1" d="M284.58,100.22l-7.13,21.58h-9.16L291.6,53.18h10.69l23.42,68.62h-9.47l-7.33-21.58Zm22.5-6.93-6.72-19.75C298.83,69.07,297.81,65,296.8,61h-.21c-1,4.07-2.14,8.25-3.46,12.42l-6.72,19.85Z"/><path class="cls-1" d="M332.62,88.61c0-6.31-.2-11.4-.4-16.08h8l.41,8.45h.2c3.66-6,9.47-9.57,17.51-9.57,11.91,0,20.87,10.08,20.87,25,0,17.71-10.79,26.47-22.4,26.47-6.51,0-12.21-2.85-15.17-7.74h-.2V142h-8.86Zm8.86,13.13a19.61,19.61,0,0,0,.41,3.67,13.82,13.82,0,0,0,13.44,10.49c9.46,0,15-7.74,15-19,0-9.88-5.19-18.33-14.66-18.33a14.3,14.3,0,0,0-13.54,11.1,14.75,14.75,0,0,0-.61,3.66Z"/><path class="cls-1" d="M388.2,88.61c0-6.31-.2-11.4-.41-16.08h8l.4,8.45h.21c3.66-6,9.46-9.57,17.51-9.57,11.91,0,20.87,10.08,20.87,25,0,17.71-10.79,26.47-22.4,26.47-6.52,0-12.22-2.85-15.17-7.74h-.2V142H388.2Zm8.86,13.13a20.52,20.52,0,0,0,.4,3.67A13.83,13.83,0,0,0,410.9,115.9c9.47,0,15-7.74,15-19,0-9.88-5.19-18.33-14.66-18.33a14.3,14.3,0,0,0-13.54,11.1,14.3,14.3,0,0,0-.61,3.66Z"/><path class="cls-1" d="M497.26,118.75a64.11,64.11,0,0,1-21.08,3.76c-10.38,0-18.93-2.64-25.65-9.06-5.91-5.7-9.57-14.86-9.57-25.55.1-20.46,14.15-35.43,37.16-35.43,7.94,0,14.15,1.73,17.1,3.16l-2.14,7.22a35.67,35.67,0,0,0-15.17-3c-16.69,0-27.59,10.39-27.59,27.59,0,17.41,10.49,27.69,26.47,27.69,5.81,0,9.78-.81,11.81-1.83V92.89H474.66V85.76h22.6Z"/><path class="cls-1" d="M535.91,121.8l-.71-6.21h-.3a18.36,18.36,0,0,1-15.07,7.33c-10,0-15.07-7-15.07-14.15,0-11.91,10.59-18.43,29.63-18.33v-1c0-4.08-1.12-11.41-11.2-11.41a24.56,24.56,0,0,0-12.83,3.67l-2-5.91a30.67,30.67,0,0,1,16.19-4.37c15.07,0,18.73,10.28,18.73,20.15V110a69.4,69.4,0,0,0,.82,11.81Zm-1.32-25.15c-9.77-.2-20.87,1.53-20.87,11.1,0,5.8,3.87,8.55,8.45,8.55a12.26,12.26,0,0,0,11.91-8.24,9.26,9.26,0,0,0,.51-2.85Z"/><path class="cls-1" d="M554.89,49.52h9V121.8h-9Z"/><path class="cls-1" d="M575.75,49.52h9V121.8h-9Z"/><path class="cls-1" d="M602.43,98.79c.2,12.12,7.94,17.11,16.9,17.11A32.32,32.32,0,0,0,633,113.35l1.53,6.41c-3.16,1.43-8.56,3.06-16.4,3.06-15.16,0-24.22-10-24.22-24.84s8.75-26.57,23.1-26.57c16.09,0,20.37,14.15,20.37,23.21a33.82,33.82,0,0,1-.31,4.17Zm26.26-6.41c.1-5.7-2.34-14.56-12.42-14.56-9.06,0-13,8.35-13.74,14.56Z"/><path class="cls-1" d="M646,87.9c0-5.8-.1-10.79-.41-15.37h7.84l.31,9.67h.41c2.24-6.62,7.63-10.79,13.64-10.79a9.78,9.78,0,0,1,2.54.3v8.45a13.62,13.62,0,0,0-3.05-.3c-6.31,0-10.79,4.78-12,11.5a24.54,24.54,0,0,0-.41,4.17V121.8H646Z"/><path class="cls-1" d="M683.71,72.53l10.79,29.11c1.12,3.26,2.34,7.13,3.16,10.08h.2c.92-3,1.94-6.72,3.16-10.28l9.77-28.91h9.47l-13.44,35.12c-6.41,16.9-10.79,25.55-16.9,30.85a24.28,24.28,0,0,1-11,5.8l-2.24-7.53a23.87,23.87,0,0,0,7.84-4.38,27.31,27.31,0,0,0,7.53-10,6.37,6.37,0,0,0,.71-2.14,7.7,7.7,0,0,0-.61-2.34l-18.22-45.4Z"/><path class="cls-1" d="M274.85,172.29a3,3,0,0,1-5.9,0,2.9,2.9,0,0,1,3-3A2.83,2.83,0,0,1,274.85,172.29Zm-5.31,33.54V179.64h4.76v26.19Z"/><path class="cls-1" d="M280.87,167.42h4.76v38.41h-4.76Z"/><path class="cls-1" d="M295.31,193.6c.11,6.44,4.22,9.09,9,9.09a17.14,17.14,0,0,0,7.25-1.36l.81,3.41a21.08,21.08,0,0,1-8.7,1.63c-8.06,0-12.88-5.31-12.88-13.2s4.65-14.12,12.28-14.12c8.55,0,10.82,7.52,10.82,12.33a18.9,18.9,0,0,1-.16,2.22Zm14-3.41c.06-3-1.24-7.73-6.6-7.73-4.81,0-6.92,4.43-7.3,7.73Z"/><path class="cls-1" d="M331.39,169.37h4.7V187h.17c1-1.41,1.94-2.71,2.86-3.9l11.15-13.68h5.84l-13.2,15.47,14.23,21h-5.58l-12-17.91-3.47,4v13.91h-4.7Z"/><path class="cls-1" d="M379.12,188.73H364.94v13.15h15.8v4h-20.5V169.37h19.69v3.95h-15v11.52h14.18Z"/><path class="cls-1" d="M403.48,174.4a14.49,14.49,0,0,0-6.92-1.73c-5,0-6.87,3-6.87,5.46,0,3.41,2.21,5.08,7.24,7,6.17,2.38,9.31,5.36,9.31,10.71,0,4.87-3.08,9.14-9.47,10.23l-1.46,2.43a4.24,4.24,0,0,1,3.79,4.06c0,3.13-2.76,4.38-5.52,4.38a8.59,8.59,0,0,1-3.89-.92l.81-2.44a6.27,6.27,0,0,0,3,.71c1.25,0,2.27-.49,2.27-1.63,0-1.46-1.67-2.05-4.21-2.32l2.16-4h-.22c-3.51,0-7.35-1-9.3-2.33l1.19-3.95a16.65,16.65,0,0,0,8.44,2.38c4.81,0,7.62-2.54,7.62-6.22,0-3.41-1.94-5.35-6.87-7.25-5.95-2.11-9.62-5.19-9.62-10.33,0-5.68,4.7-9.9,11.79-9.9a16.55,16.55,0,0,1,8.06,1.79Z"/><path class="cls-1" d="M411.1,169.37h19.64v3.95H415.81v12.11H429.6v3.9H415.81v16.5H411.1Z"/><path class="cls-1" d="M454.18,188.73H440v13.15H455.8v4H435.3V169.37H455v3.95H440v11.52h14.17Z"/><path class="cls-1" d="M460.38,169.85a67.85,67.85,0,0,1,10-.75c6.76,0,11.57,1.56,14.76,4.54s5.14,7.19,5.14,13.09-1.84,10.82-5.24,14.17-9,5.25-16.12,5.25a76.12,76.12,0,0,1-8.55-.43Zm4.71,32.24a29.3,29.3,0,0,0,4.76.27c10.06,0,15.52-5.62,15.52-15.47.05-8.6-4.81-14.06-14.77-14.06a26,26,0,0,0-5.51.49Z"/><path class="cls-1" d="M495.16,164.07a2.75,2.75,0,0,1,2.71-2.71,2.69,2.69,0,0,1,2.59,2.71,2.65,2.65,0,1,1-5.3,0Zm5,5.3v36.46h-4.71V169.37Z"/><path class="cls-1" d="M507.33,205.83V169.37h5.14l11.68,18.44a103.11,103.11,0,0,1,6.55,11.85l.11-.06c-.44-4.86-.54-9.3-.54-15V169.37h4.43v36.46h-4.76l-11.58-18.5a116.51,116.51,0,0,1-6.81-12.18l-.16.06c.27,4.6.38,9,.38,15v15.58Z"/></g></g></svg>