<?xml version="1.0" encoding="UTF-8"?>
<svg xmlns="http://www.w3.org/2000/svg" xmlns:xlink="http://www.w3.org/1999/xlink" width="284pt" height="284pt" viewBox="0 0 284 284" version="1.1">
<g id="surface1">
<path style=" stroke:none;fill-rule:evenodd;fill:rgb(100%,100%,100%);fill-opacity:1;" d="M 0 0.535156 L 283.464844 0.535156 L 283.464844 284 L 0 284 L 0 0.535156 "/>
<path style=" stroke:none;fill-rule:evenodd;fill:rgb(92.89856%,10.998535%,14.099121%);fill-opacity:1;" d="M 14.171875 57.230469 L 269.289063 57.230469 L 269.289063 227.308594 L 14.171875 227.308594 Z M 152.785156 122.859375 L 161.933594 135.058594 L 176.363281 130.128906 L 167.589844 142.597656 L 176.738281 154.796875 L 162.164063 150.304688 L 153.390625 162.777344 L 153.160156 147.527344 L 138.585938 143.035156 L 153.015625 138.105469 Z M 103.09375 97.96875 C 110.453125 97.96875 117.402344 99.757813 123.527344 102.925781 C 124.519531 103.4375 125.496094 103.988281 126.453125 104.578125 C 131.347656 107.59375 135.613281 111.523438 139.011719 116.125 C 139.296875 116.511719 138.675781 117.097656 138.308594 116.789063 L 138.304688 116.789063 L 138.304688 116.785156 C 137.4375 116.09375 136.53125 115.4375 135.59375 114.820313 C 134.648438 114.203125 133.671875 113.628906 132.675781 113.097656 C 127.515625 110.367188 121.5625 108.808594 115.230469 108.808594 C 105.402344 108.808594 96.480469 112.570313 90.019531 118.636719 C 83.566406 124.695313 79.566406 133.058594 79.566406 142.265625 L 79.566406 142.269531 C 79.566406 151.480469 83.566406 159.839844 90.023438 165.898438 C 96.484375 171.964844 105.402344 175.726563 115.226563 175.730469 L 115.238281 175.730469 C 119.632813 175.726563 123.847656 174.976563 127.738281 173.601563 C 128.375 173.375 129 173.132813 129.613281 172.878906 C 132.777344 171.5625 135.707031 169.824219 138.316406 167.738281 C 138.691406 167.4375 139.300781 168.039063 139.007813 168.417969 L 139.003906 168.421875 C 137.867188 169.957031 136.636719 171.417969 135.316406 172.796875 C 133.996094 174.175781 132.585938 175.46875 131.097656 176.671875 C 123.4375 182.855469 113.6875 186.570313 103.09375 186.570313 L 103.089844 186.570313 C 90.824219 186.566406 79.691406 181.59375 71.621094 173.566406 C 63.550781 165.542969 58.550781 154.46875 58.546875 142.273438 L 58.546875 142.265625 C 58.546875 130.066406 63.550781 118.992188 71.621094 110.964844 C 79.691406 102.941406 90.824219 97.96875 103.089844 97.96875 L 103.09375 97.96875 "/>
</g>
</svg>
