<svg xmlns="http://www.w3.org/2000/svg" xmlns:xlink="http://www.w3.org/1999/xlink" width="99" zoomAndPan="magnify" viewBox="0 0 74.25 78.749998" height="105" preserveAspectRatio="xMidYMid meet" version="1.0"><defs><g/><clipPath id="41fffd5354"><path d="M 20.738281 1.054688 L 52.664062 1.054688 L 52.664062 43.378906 L 20.738281 43.378906 Z M 20.738281 1.054688 " clip-rule="nonzero"/></clipPath><clipPath id="446f95f80a"><path d="M 17.675781 0.960938 L 55.542969 0.960938 L 55.542969 49.226562 L 17.675781 49.226562 Z M 17.675781 0.960938 " clip-rule="nonzero"/></clipPath></defs><g clip-path="url(#41fffd5354)"><path fill="#eb910b" d="M 20.738281 9.445312 L 29.21875 17.929688 L 29.21875 11.566406 L 44.066406 11.566406 C 46.410156 11.566406 48.308594 13.464844 48.308594 15.808594 C 48.308594 18.152344 46.410156 20.050781 44.066406 20.050781 L 29.21875 20.050781 C 24.542969 20.050781 20.738281 23.855469 20.738281 28.535156 C 20.738281 33.210938 24.542969 37.015625 29.21875 37.015625 L 44.066406 37.015625 L 44.066406 43.378906 L 52.546875 34.894531 L 44.066406 26.414062 L 44.066406 32.773438 L 29.21875 32.773438 C 26.875 32.773438 24.980469 30.875 24.980469 28.535156 C 24.980469 26.191406 26.875 24.292969 29.21875 24.292969 L 44.066406 24.292969 C 48.742188 24.292969 52.546875 20.484375 52.546875 15.808594 C 52.546875 11.132812 48.742188 7.324219 44.066406 7.324219 L 29.21875 7.324219 L 29.21875 0.964844 Z M 20.738281 9.445312 " fill-opacity="1" fill-rule="nonzero"/></g><g clip-path="url(#446f95f80a)"><path fill="#000000" d="M 17.691406 2.234375 C 17.691406 2.0625 17.722656 1.902344 17.785156 1.746094 C 17.851562 1.589844 17.941406 1.453125 18.058594 1.335938 C 18.179688 1.214844 18.3125 1.125 18.46875 1.058594 C 18.625 0.996094 18.785156 0.960938 18.953125 0.960938 C 19.117188 0.960938 19.28125 0.996094 19.433594 1.058594 C 19.589844 1.125 19.726562 1.214844 19.84375 1.335938 C 19.960938 1.453125 20.054688 1.589844 20.117188 1.746094 C 20.179688 1.902344 20.210938 2.0625 20.210938 2.234375 L 20.210938 30.175781 C 20.210938 30.714844 20.238281 31.253906 20.292969 31.792969 C 20.34375 32.332031 20.421875 32.863281 20.527344 33.394531 C 20.632812 33.925781 20.761719 34.449219 20.917969 34.96875 C 21.074219 35.484375 21.253906 35.992188 21.460938 36.492188 C 21.667969 36.992188 21.894531 37.480469 22.148438 37.957031 C 22.402344 38.433594 22.679688 38.898438 22.976562 39.347656 C 23.273438 39.796875 23.59375 40.230469 23.933594 40.648438 C 24.277344 41.066406 24.636719 41.464844 25.015625 41.847656 C 25.394531 42.230469 25.792969 42.59375 26.207031 42.9375 C 26.621094 43.28125 27.054688 43.601562 27.5 43.902344 C 27.945312 44.203125 28.40625 44.480469 28.878906 44.734375 C 29.355469 44.992188 29.839844 45.222656 30.335938 45.429688 C 30.832031 45.636719 31.335938 45.816406 31.851562 45.972656 C 32.363281 46.132812 32.882812 46.261719 33.410156 46.367188 C 33.9375 46.472656 34.46875 46.550781 35.003906 46.605469 C 35.539062 46.660156 36.074219 46.683594 36.609375 46.683594 C 37.148438 46.683594 37.683594 46.660156 38.21875 46.605469 C 38.75 46.550781 39.28125 46.472656 39.808594 46.367188 C 40.335938 46.261719 40.855469 46.132812 41.371094 45.972656 C 41.882812 45.816406 42.390625 45.636719 42.886719 45.429688 C 43.382812 45.222656 43.867188 44.992188 44.339844 44.734375 C 44.8125 44.480469 45.273438 44.203125 45.71875 43.902344 C 46.167969 43.601562 46.597656 43.28125 47.011719 42.9375 C 47.429688 42.59375 47.824219 42.230469 48.203125 41.847656 C 48.585938 41.464844 48.945312 41.066406 49.285156 40.648438 C 49.625 40.230469 49.945312 39.796875 50.246094 39.347656 C 50.542969 38.898438 50.816406 38.433594 51.070312 37.957031 C 51.324219 37.480469 51.554688 36.992188 51.757812 36.492188 C 51.964844 35.992188 52.144531 35.484375 52.300781 34.96875 C 52.457031 34.449219 52.585938 33.925781 52.691406 33.394531 C 52.796875 32.863281 52.875 32.332031 52.929688 31.792969 C 52.980469 31.253906 53.007812 30.714844 53.007812 30.175781 L 53.007812 2.234375 C 53.007812 2.0625 53.039062 1.902344 53.105469 1.746094 C 53.167969 1.589844 53.257812 1.453125 53.378906 1.335938 C 53.496094 1.214844 53.632812 1.125 53.785156 1.058594 C 53.941406 0.996094 54.101562 0.960938 54.269531 0.960938 C 54.4375 0.960938 54.597656 0.996094 54.75 1.058594 C 54.90625 1.125 55.042969 1.214844 55.160156 1.335938 C 55.277344 1.453125 55.371094 1.589844 55.433594 1.746094 C 55.5 1.902344 55.53125 2.0625 55.53125 2.234375 L 55.53125 30.175781 C 55.53125 30.796875 55.5 31.421875 55.4375 32.042969 C 55.378906 32.664062 55.289062 33.277344 55.167969 33.890625 C 55.046875 34.503906 54.894531 35.105469 54.714844 35.703125 C 54.535156 36.300781 54.328125 36.886719 54.089844 37.464844 C 53.851562 38.042969 53.589844 38.605469 53.296875 39.15625 C 53.003906 39.703125 52.6875 40.238281 52.339844 40.757812 C 51.996094 41.277344 51.628906 41.777344 51.234375 42.261719 C 50.84375 42.742188 50.425781 43.203125 49.988281 43.644531 C 49.550781 44.085938 49.09375 44.503906 48.613281 44.902344 C 48.132812 45.296875 47.636719 45.667969 47.121094 46.015625 C 46.605469 46.359375 46.074219 46.679688 45.527344 46.976562 C 44.984375 47.269531 44.421875 47.535156 43.851562 47.773438 C 43.277344 48.015625 42.695312 48.222656 42.101562 48.40625 C 41.507812 48.585938 40.910156 48.738281 40.300781 48.859375 C 39.695312 48.980469 39.082031 49.074219 38.464844 49.132812 C 37.847656 49.195312 37.230469 49.226562 36.609375 49.226562 C 35.992188 49.226562 35.371094 49.195312 34.753906 49.132812 C 34.140625 49.074219 33.527344 48.980469 32.917969 48.859375 C 32.3125 48.738281 31.710938 48.585938 31.117188 48.40625 C 30.523438 48.222656 29.941406 48.015625 29.371094 47.773438 C 28.796875 47.535156 28.238281 47.269531 27.691406 46.976562 C 27.144531 46.679688 26.613281 46.359375 26.097656 46.015625 C 25.582031 45.667969 25.085938 45.296875 24.609375 44.902344 C 24.128906 44.503906 23.671875 44.085938 23.230469 43.644531 C 22.792969 43.203125 22.378906 42.742188 21.984375 42.261719 C 21.589844 41.777344 21.222656 41.277344 20.878906 40.757812 C 20.535156 40.238281 20.214844 39.703125 19.925781 39.15625 C 19.632812 38.605469 19.367188 38.042969 19.128906 37.464844 C 18.894531 36.886719 18.683594 36.300781 18.503906 35.703125 C 18.324219 35.105469 18.175781 34.503906 18.054688 33.890625 C 17.933594 33.277344 17.84375 32.664062 17.78125 32.042969 C 17.71875 31.421875 17.691406 30.796875 17.691406 30.175781 Z M 17.691406 2.234375 " fill-opacity="1" fill-rule="nonzero"/></g><g fill="#eb910b" fill-opacity="1"><g transform="translate(11.663196, 71.35581)"><g><path d="M 3.171875 0.125 C 2.390625 0.125 1.8125 -0.0820312 1.4375 -0.5 C 1.070312 -0.925781 0.890625 -1.539062 0.890625 -2.34375 L 0.890625 -6.9375 L 2.640625 -6.9375 L 2.640625 -2.5625 C 2.640625 -2.132812 2.726562 -1.820312 2.90625 -1.625 C 3.09375 -1.4375 3.375 -1.34375 3.75 -1.34375 C 4.226562 -1.34375 4.601562 -1.5 4.875 -1.8125 C 5.144531 -2.125 5.28125 -2.625 5.28125 -3.3125 L 5.28125 -6.9375 L 7.015625 -6.9375 L 7.015625 0 L 5.34375 0 L 5.34375 -1.015625 L 5.21875 -1.046875 C 5 -0.648438 4.726562 -0.351562 4.40625 -0.15625 C 4.082031 0.03125 3.671875 0.125 3.171875 0.125 Z M 3.171875 0.125 "/></g></g></g><g fill="#eb910b" fill-opacity="1"><g transform="translate(19.679399, 71.35581)"><g><path d="M 4.078125 0.125 C 3.441406 0.125 2.875 0.046875 2.375 -0.109375 C 1.875 -0.265625 1.457031 -0.46875 1.125 -0.71875 C 0.800781 -0.976562 0.550781 -1.257812 0.375 -1.5625 L 1.375 -2.78125 L 1.53125 -2.78125 C 1.800781 -2.375 2.148438 -2.046875 2.578125 -1.796875 C 3.003906 -1.554688 3.503906 -1.4375 4.078125 -1.4375 C 4.554688 -1.4375 4.921875 -1.539062 5.171875 -1.75 C 5.421875 -1.957031 5.546875 -2.238281 5.546875 -2.59375 C 5.546875 -2.8125 5.503906 -2.992188 5.421875 -3.140625 C 5.347656 -3.285156 5.21875 -3.410156 5.03125 -3.515625 C 4.84375 -3.617188 4.59375 -3.710938 4.28125 -3.796875 L 3.09375 -4.0625 C 2.269531 -4.25 1.65625 -4.5625 1.25 -5 C 0.84375 -5.4375 0.640625 -6.003906 0.640625 -6.703125 C 0.640625 -7.222656 0.769531 -7.679688 1.03125 -8.078125 C 1.289062 -8.472656 1.671875 -8.78125 2.171875 -9 C 2.671875 -9.21875 3.265625 -9.328125 3.953125 -9.328125 C 4.660156 -9.328125 5.265625 -9.234375 5.765625 -9.046875 C 6.273438 -8.859375 6.703125 -8.570312 7.046875 -8.1875 L 6.15625 -6.953125 L 6 -6.953125 C 5.738281 -7.222656 5.441406 -7.425781 5.109375 -7.5625 C 4.773438 -7.695312 4.390625 -7.765625 3.953125 -7.765625 C 3.453125 -7.765625 3.070312 -7.675781 2.8125 -7.5 C 2.550781 -7.332031 2.421875 -7.09375 2.421875 -6.78125 C 2.421875 -6.488281 2.507812 -6.253906 2.6875 -6.078125 C 2.875 -5.910156 3.191406 -5.78125 3.640625 -5.6875 L 4.859375 -5.4375 C 5.742188 -5.25 6.390625 -4.925781 6.796875 -4.46875 C 7.203125 -4.019531 7.40625 -3.429688 7.40625 -2.703125 C 7.40625 -2.128906 7.28125 -1.628906 7.03125 -1.203125 C 6.78125 -0.785156 6.40625 -0.457031 5.90625 -0.21875 C 5.40625 0.0078125 4.796875 0.125 4.078125 0.125 Z M 4.078125 0.125 "/></g></g></g><g fill="#eb910b" fill-opacity="1"><g transform="translate(27.569957, 71.35581)"><g><path d="M 3.71875 0 L 1.90625 0 L 0.25 -6.9375 L 1.859375 -6.9375 L 2.890625 -2.25 L 3.015625 -2.25 L 4.34375 -6.9375 L 5.84375 -6.9375 L 7.203125 -2.25 L 7.34375 -2.25 L 8.328125 -6.9375 L 9.890625 -6.9375 L 8.265625 0 L 6.4375 0 L 5.125 -4.71875 L 4.984375 -4.71875 Z M 3.71875 0 "/></g></g></g><g fill="#eb910b" fill-opacity="1"><g transform="translate(37.703298, 71.35581)"><g><path d="M 2.703125 0.125 C 2.253906 0.125 1.867188 0.046875 1.546875 -0.109375 C 1.222656 -0.273438 0.972656 -0.515625 0.796875 -0.828125 C 0.617188 -1.148438 0.53125 -1.53125 0.53125 -1.96875 C 0.53125 -2.382812 0.617188 -2.726562 0.796875 -3 C 0.972656 -3.28125 1.242188 -3.507812 1.609375 -3.6875 C 1.972656 -3.863281 2.457031 -4.003906 3.0625 -4.109375 C 3.46875 -4.171875 3.78125 -4.238281 4 -4.3125 C 4.21875 -4.394531 4.363281 -4.488281 4.4375 -4.59375 C 4.507812 -4.695312 4.546875 -4.828125 4.546875 -4.984375 C 4.546875 -5.203125 4.46875 -5.367188 4.3125 -5.484375 C 4.164062 -5.609375 3.910156 -5.671875 3.546875 -5.671875 C 3.160156 -5.671875 2.789062 -5.582031 2.4375 -5.40625 C 2.09375 -5.238281 1.796875 -5.015625 1.546875 -4.734375 L 1.421875 -4.734375 L 0.6875 -5.828125 C 1.039062 -6.210938 1.46875 -6.515625 1.96875 -6.734375 C 2.476562 -6.953125 3.035156 -7.0625 3.640625 -7.0625 C 4.554688 -7.0625 5.21875 -6.863281 5.625 -6.46875 C 6.039062 -6.082031 6.25 -5.535156 6.25 -4.828125 L 6.25 -1.8125 C 6.25 -1.5 6.382812 -1.34375 6.65625 -1.34375 C 6.757812 -1.34375 6.859375 -1.363281 6.953125 -1.40625 L 7.046875 -1.375 L 7.171875 -0.15625 C 7.078125 -0.09375 6.941406 -0.0390625 6.765625 0 C 6.597656 0.03125 6.410156 0.046875 6.203125 0.046875 C 5.785156 0.046875 5.460938 -0.03125 5.234375 -0.1875 C 5.003906 -0.34375 4.835938 -0.59375 4.734375 -0.9375 L 4.609375 -0.953125 C 4.265625 -0.234375 3.628906 0.125 2.703125 0.125 Z M 3.25 -1.171875 C 3.65625 -1.171875 3.976562 -1.304688 4.21875 -1.578125 C 4.457031 -1.847656 4.578125 -2.222656 4.578125 -2.703125 L 4.578125 -3.40625 L 4.46875 -3.4375 C 4.363281 -3.351562 4.222656 -3.28125 4.046875 -3.21875 C 3.878906 -3.164062 3.632812 -3.113281 3.3125 -3.0625 C 2.9375 -3 2.664062 -2.890625 2.5 -2.734375 C 2.332031 -2.578125 2.25 -2.359375 2.25 -2.078125 C 2.25 -1.785156 2.335938 -1.5625 2.515625 -1.40625 C 2.691406 -1.25 2.9375 -1.171875 3.25 -1.171875 Z M 3.25 -1.171875 "/></g></g></g><g fill="#eb910b" fill-opacity="1"><g transform="translate(45.009609, 71.35581)"><g><path d="M 1 2.8125 L 1 -6.9375 L 2.734375 -6.9375 L 2.734375 -6.03125 L 2.875 -6 C 3.082031 -6.351562 3.359375 -6.617188 3.703125 -6.796875 C 4.046875 -6.972656 4.445312 -7.0625 4.90625 -7.0625 C 5.457031 -7.0625 5.941406 -6.929688 6.359375 -6.671875 C 6.773438 -6.410156 7.097656 -6.007812 7.328125 -5.46875 C 7.566406 -4.925781 7.6875 -4.257812 7.6875 -3.46875 C 7.6875 -2.675781 7.5625 -2.007812 7.3125 -1.46875 C 7.070312 -0.9375 6.734375 -0.535156 6.296875 -0.265625 C 5.859375 -0.00390625 5.359375 0.125 4.796875 0.125 C 4.359375 0.125 3.984375 0.0546875 3.671875 -0.078125 C 3.359375 -0.222656 3.09375 -0.453125 2.875 -0.765625 L 2.734375 -0.734375 L 2.734375 2.8125 Z M 4.3125 -1.34375 C 4.820312 -1.34375 5.210938 -1.507812 5.484375 -1.84375 C 5.753906 -2.1875 5.890625 -2.726562 5.890625 -3.46875 C 5.890625 -4.195312 5.753906 -4.734375 5.484375 -5.078125 C 5.210938 -5.421875 4.820312 -5.59375 4.3125 -5.59375 C 3.820312 -5.59375 3.429688 -5.414062 3.140625 -5.0625 C 2.859375 -4.707031 2.71875 -4.175781 2.71875 -3.46875 C 2.71875 -2.757812 2.859375 -2.226562 3.140625 -1.875 C 3.429688 -1.519531 3.820312 -1.34375 4.3125 -1.34375 Z M 4.3125 -1.34375 "/></g></g></g><g fill="#eb910b" fill-opacity="1"><g transform="translate(53.308521, 71.35581)"><g><path d="M 1 2.8125 L 1 -6.9375 L 2.734375 -6.9375 L 2.734375 -6.03125 L 2.875 -6 C 3.082031 -6.351562 3.359375 -6.617188 3.703125 -6.796875 C 4.046875 -6.972656 4.445312 -7.0625 4.90625 -7.0625 C 5.457031 -7.0625 5.941406 -6.929688 6.359375 -6.671875 C 6.773438 -6.410156 7.097656 -6.007812 7.328125 -5.46875 C 7.566406 -4.925781 7.6875 -4.257812 7.6875 -3.46875 C 7.6875 -2.675781 7.5625 -2.007812 7.3125 -1.46875 C 7.070312 -0.9375 6.734375 -0.535156 6.296875 -0.265625 C 5.859375 -0.00390625 5.359375 0.125 4.796875 0.125 C 4.359375 0.125 3.984375 0.0546875 3.671875 -0.078125 C 3.359375 -0.222656 3.09375 -0.453125 2.875 -0.765625 L 2.734375 -0.734375 L 2.734375 2.8125 Z M 4.3125 -1.34375 C 4.820312 -1.34375 5.210938 -1.507812 5.484375 -1.84375 C 5.753906 -2.1875 5.890625 -2.726562 5.890625 -3.46875 C 5.890625 -4.195312 5.753906 -4.734375 5.484375 -5.078125 C 5.210938 -5.421875 4.820312 -5.59375 4.3125 -5.59375 C 3.820312 -5.59375 3.429688 -5.414062 3.140625 -5.0625 C 2.859375 -4.707031 2.71875 -4.175781 2.71875 -3.46875 C 2.71875 -2.757812 2.859375 -2.226562 3.140625 -1.875 C 3.429688 -1.519531 3.820312 -1.34375 4.3125 -1.34375 Z M 4.3125 -1.34375 "/></g></g></g></svg>